<svg id="Layer_1" data-name="Layer 1" xmlns="http://www.w3.org/2000/svg" viewBox="0 0 44.8 37.67"><defs><style>.cls-1{fill:#ff52c1;}</style></defs><title>logoFavicon</title><path class="cls-1" d="M28,.88c-7.73,0-15.79,1.74-23.92,4A4.19,4.19,0,0,0,1.47,6.59,6.7,6.7,0,0,0,.65,9,64.11,64.11,0,0,0,.12,22.59,6.82,6.82,0,0,0,.84,25.8,3.68,3.68,0,0,0,3.4,27.28c1.4.21,2.82.38,4.23.52l-.31,8.7A1.88,1.88,0,0,0,8,38.1a2.17,2.17,0,0,0,1.22.44,2.43,2.43,0,0,0,2.37-1.25,31.39,31.39,0,0,1,6.32-8.9,199.33,199.33,0,0,0,20.48-.74,5.22,5.22,0,0,0,4.67-3.75c1.36-4.23,1.57-9.45,1.72-14.73a6.76,6.76,0,0,0-2-5.24A10.43,10.43,0,0,0,38.8,2.22,51.3,51.3,0,0,0,28,.88ZM38.26,4.19a9.3,9.3,0,0,1,3.31,1.34c1.26,1.33,1.21,2.23,1.2,3.67-.14,5.12-.39,10.09-1.55,13.86a3.36,3.36,0,0,1-3,2.56,196,196,0,0,1-20.71.74,1,1,0,0,0-.76.3,33.8,33.8,0,0,0-6.92,9.67.37.37,0,0,1-.32.18.15.15,0,0,1-.14-.15l.31-9.43a1,1,0,0,0-.9-1.05c-1.7-.16-3.38-.37-5.06-.62-.73-.11-1-.31-1.2-.61a5.2,5.2,0,0,1-.36-2.13,62.9,62.9,0,0,1,.49-13.1,6,6,0,0,1,.54-1.76,2.41,2.41,0,0,1,1.65-.9c8-2.2,15.74-3.84,23.06-3.84A50.54,50.54,0,0,1,38.26,4.19ZM10.78,12.28a3.52,3.52,0,0,0-.14,4.29,2.92,2.92,0,0,0,2,1.24A3.64,3.64,0,0,0,15.14,17a3.56,3.56,0,0,0,.46-4.71A2.86,2.86,0,0,0,13.38,11a3.3,3.3,0,0,0-2.6,1.28Zm11.85-1.07a3.28,3.28,0,0,0-2.51,1.6,3.38,3.38,0,0,0-.48,3.25c1,2.2,4.28,2.18,5.6-.06a3.11,3.11,0,0,0,0-3.06,3,3,0,0,0-2.13-1.7A1.94,1.94,0,0,0,22.63,11.21Zm9.63.2a3.9,3.9,0,0,0-1,.12A3.18,3.18,0,0,0,29,15a3.42,3.42,0,0,0,1.21,2.31,3.47,3.47,0,0,0,2.88.62,3.08,3.08,0,0,0,2.32-2.27A3.19,3.19,0,0,0,35,12.8a3.47,3.47,0,0,0-2.72-1.39ZM13.29,13a.71.71,0,0,1,.64.36,1.64,1.64,0,0,1-.13,2,1.16,1.16,0,0,1-.92.4.91.91,0,0,1-.57-.42,1.55,1.55,0,0,1,0-1.81,1.57,1.57,0,0,1,1-.54Zm9.49.22a1.68,1.68,0,0,1,.66.64,1,1,0,0,1,0,1.06,1.23,1.23,0,0,1-2,.29,2,2,0,0,1,.32-1.32c.34-.51.76-.7,1-.67ZM33.34,14a1.87,1.87,0,0,1,.1,1.08.94.94,0,0,1-.78.81,1.33,1.33,0,0,1-1.2-.21,1.38,1.38,0,0,1-.46-.92c-.09-.92.24-1.13.77-1.27A1.56,1.56,0,0,1,33.34,14Z" transform="translate(-0.01 -0.88)"/></svg>