<?xml version="1.0" standalone="no"?>
<!DOCTYPE svg PUBLIC "-//W3C//DTD SVG 20010904//EN"
 "http://www.w3.org/TR/2001/REC-SVG-20010904/DTD/svg10.dtd">
<svg version="1.0" xmlns="http://www.w3.org/2000/svg"
 width="720.000000pt" height="720.000000pt" viewBox="0 0 720.000000 720.000000"
 preserveAspectRatio="xMidYMid meet">
<metadata>
Created by potrace 1.11, written by Peter Selinger 2001-2013
</metadata>
<g transform="translate(0.000000,720.000000) scale(0.100000,-0.100000)"
fill="#000000" stroke="none">
<path d="M4025 6613 c-605 -36 -1224 -123 -1895 -264 -555 -117 -1517 -364
-1636 -420 -134 -63 -242 -171 -305 -304 -65 -138 -87 -238 -128 -590 -55
-466 -56 -485 -56 -1245 0 -763 4 -823 50 -985 48 -165 97 -241 207 -321 115
-85 228 -111 731 -168 121 -13 220 -26 222 -28 2 -2 -3 -176 -10 -388 -41
-1127 -40 -1069 -16 -1132 27 -69 87 -135 156 -168 45 -22 63 -25 170 -25 117
0 121 1 182 34 96 51 138 105 240 301 230 444 506 833 834 1175 l109 113 273
-5 c693 -13 1975 35 2842 108 248 20 319 32 421 70 195 72 383 250 469 444 75
170 170 583 219 955 50 376 96 1125 96 1568 0 290 -83 520 -267 735 -104 123
-361 254 -628 320 -417 105 -940 185 -1413 217 -136 9 -735 11 -867 3z m840
-344 c413 -26 814 -84 1230 -175 212 -47 316 -82 460 -158 103 -53 127 -70
167 -120 59 -74 103 -157 125 -237 46 -168 -8 -1301 -88 -1854 -46 -317 -130
-670 -187 -785 -58 -116 -200 -234 -327 -269 -80 -23 -787 -76 -1395 -106
-485 -23 -1005 -35 -1573 -35 -430 0 -523 -2 -546 -14 -36 -19 -281 -272 -402
-417 -269 -319 -512 -687 -690 -1041 -66 -132 -99 -172 -121 -150 -6 6 -5 120
1 308 6 164 18 514 27 777 l15 479 -23 46 c-29 60 -78 88 -167 96 -336 33
-798 96 -861 117 -123 43 -145 114 -165 529 -32 657 -8 1296 70 1876 35 256
74 373 144 437 72 65 49 58 766 241 1153 295 2047 438 2930 470 124 4 430 -3
610 -15z"/>
<path d="M2045 4990 c-200 -40 -376 -211 -429 -417 -70 -270 75 -565 322 -654
168 -60 396 2 530 145 140 150 188 380 121 575 -27 78 -106 198 -162 247 -106
91 -250 130 -382 104z m141 -336 c24 -12 41 -32 61 -71 71 -146 -7 -327 -147
-341 -62 -6 -98 18 -134 90 -20 39 -26 67 -26 112 1 103 45 169 140 210 45 20
64 20 106 0z"/>
<path d="M3605 4963 c-133 -18 -261 -97 -350 -217 -115 -156 -155 -289 -134
-449 44 -332 428 -488 746 -301 250 146 328 463 177 721 -68 117 -201 217
-322 242 -53 11 -62 11 -117 4z m100 -365 c73 -63 94 -152 55 -227 -48 -94
-153 -134 -245 -92 -60 27 -69 42 -62 109 8 88 62 181 132 223 44 28 79 24
120 -13z"/>
<path d="M5021 4914 c-213 -57 -371 -270 -371 -499 1 -268 174 -487 428 -540
85 -18 139 -18 227 0 198 42 342 185 395 391 50 195 5 370 -130 505 -71 70
-154 119 -250 144 -70 19 -228 18 -299 -1z m259 -348 c72 -38 85 -63 85 -166
0 -96 -10 -121 -68 -164 -39 -29 -151 -35 -198 -11 -69 35 -93 71 -110 159
-20 108 17 177 108 202 60 17 125 10 183 -20z"/>
</g>
</svg>
