<?xml version="1.0" encoding="UTF-8"?>
<svg width="15px" height="15px" viewBox="0 0 15 15" version="1.1" xmlns="http://www.w3.org/2000/svg" xmlns:xlink="http://www.w3.org/1999/xlink">
    <title>Branch Alternate Icon</title>
    <desc>Branch Alternate Menu Ion</desc>
    <g id="Web" stroke="none" stroke-width="1" fill="none" fill-rule="evenodd">
        <g id="https://oktium.com/business---description" transform="translate(-1221.000000, -39.000000)" fill="#000000">
            <g id="MENU" transform="translate(41.000000, 30.000000)">
                <path d="M1194.17233,15.8251486 C1194.26885,15.8251486 1194.34711,15.9069653 1194.34711,16.0078726 L1194.34711,16.0078726 L1194.34776,23.8063672 C1194.34776,23.9134107 1194.26494,24 1194.1632,24 L1194.1632,24 L1193.04342,24 L1193.04342,17.5678442 C1193.04342,17.354439 1192.87842,17.1819421 1192.67429,17.1819421 L1192.67429,17.1819421 L1189.50344,17.1819421 C1189.29735,17.1819421 1189.1304,17.3564844 1189.1304,17.5719351 L1189.1304,17.5719351 L1189.1304,24 L1180.83478,24 C1180.73369,24 1180.65217,23.9147743 1180.65217,23.8084126 L1180.65217,23.8084126 L1180.65217,16.0140088 C1180.65217,15.9096926 1180.73304,15.8251486 1180.83282,15.8251486 L1180.83282,15.8251486 Z M1192.39119,17.8636116 L1192.39119,23.9998636 L1189.7825,23.9998636 L1189.7825,17.8636116 L1192.39119,17.8636116 Z M1187.45301,17.1819421 L1182.3139,17.1819421 C1182.1163,17.1819421 1181.95651,17.3489846 1181.95651,17.5548899 L1181.95651,17.5548899 L1181.95651,22.2470773 C1181.95651,22.462528 1182.12282,22.6363884 1182.32825,22.6363884 L1182.32825,22.6363884 L1187.46084,22.6363884 C1187.66301,22.6363884 1187.82605,22.465937 1187.82605,22.2545772 L1187.82605,22.2545772 L1187.82605,17.5719351 C1187.82605,17.3564844 1187.6591,17.1819421 1187.45301,17.1819421 L1187.45301,17.1819421 Z M1187.17382,17.8636116 L1187.17382,21.9544463 L1182.60862,21.9544463 L1182.60862,17.8636116 L1187.17382,17.8636116 Z M1181.95651,11.0454855 L1181.95651,14.4511054 C1181.95651,14.7957273 1181.71397,15.0800572 1181.39793,15.1289054 L1181.30108,15.1363202 L1180.65087,15.1363202 C1180.32419,15.1363202 1180.05356,14.88501 1180.00706,14.5565548 L1180,14.4558781 L1180,11.7307004 C1180,11.3866983 1180.24254,11.1018613 1180.55858,11.0529157 L1180.65543,11.0454855 L1181.95651,11.0454855 Z M1194.34457,11.0454174 C1194.67362,11.0454174 1194.94607,11.2989815 1194.99289,11.6293832 L1195,11.7306322 L1195,14.4510373 C1195,14.7956591 1194.75746,15.079989 1194.44142,15.1288372 L1194.34457,15.1362521 L1193.69435,15.1362521 C1193.36768,15.1362521 1193.09705,14.8849418 1193.05055,14.5564866 L1193.04349,14.4558099 L1193.04349,11.0454174 L1194.34457,11.0454174 Z M1192.39125,11.0454174 L1192.39125,14.4510373 C1192.39125,14.7956591 1192.14871,15.079989 1191.83267,15.1288372 L1191.73582,15.1362521 L1191.0856,15.1362521 C1190.75893,15.1362521 1190.4883,14.8849418 1190.4418,14.5564866 L1190.43474,14.4558099 L1190.43474,11.0454174 L1192.39125,11.0454174 Z M1189.78257,11.0454174 L1189.78257,14.4510373 C1189.78257,14.7956591 1189.54002,15.079989 1189.22398,15.1288372 L1189.12713,15.1362521 L1188.47692,15.1362521 C1188.15024,15.1362521 1187.87962,14.8849418 1187.83311,14.5564866 L1187.82605,14.4558099 L1187.82605,11.0454174 L1189.78257,11.0454174 Z M1187.17388,11.0454174 L1187.17388,14.4510373 C1187.17388,14.7956591 1186.93134,15.079989 1186.6153,15.1288372 L1186.51845,15.1362521 L1185.86824,15.1362521 C1185.54156,15.1362521 1185.27093,14.8849418 1185.22443,14.5564866 L1185.21737,14.4558099 L1185.21737,11.0454174 L1187.17388,11.0454174 Z M1184.5652,11.0454174 L1184.5652,14.4510373 C1184.5652,14.7956591 1184.32265,15.079989 1184.00661,15.1288372 L1183.90977,15.1362521 L1183.25955,15.1362521 C1182.93287,15.1362521 1182.66225,14.8849418 1182.61574,14.5564866 L1182.60868,14.4558099 L1182.60868,11.0454174 L1184.5652,11.0454174 Z M1194.16939,9 C1194.24818,9 1194.31486,9.05367175 1194.33838,9.12750314 L1194.34744,9.18613298 L1194.34744,10.1740696 C1194.34744,10.2575226 1194.29526,10.3287577 1194.22331,10.3539136 L1194.16613,10.3636116 L1180.83054,10.3636116 C1180.75176,10.3636116 1180.68466,10.3103762 1180.66098,10.2363702 L1180.65184,10.1774786 L1180.65184,9.18749659 C1180.65184,9.10513445 1180.7036,9.03455392 1180.77506,9.00961619 L1180.83184,9 L1194.16939,9 Z" id="icon-branch-gray"></path>
            </g>
        </g>
    </g>
</svg>
