<svg id="Layer_1" data-name="Layer 1" xmlns="http://www.w3.org/2000/svg" viewBox="0 0 15 15"><defs><style>.cls-1{fill:#ff52bf;}</style></defs><title>branch</title><g id="Web"><g id="https:_oktium.com_business---description" data-name="https://oktium.com/business---description"><g id="MENU"><path id="icon-branch-gray" class="cls-1" d="M14.17,6.83a.18.18,0,0,1,.18.18h0v7.8a.2.2,0,0,1-.19.19H13V8.57a.37.37,0,0,0-.37-.39H9.5a.39.39,0,0,0-.37.39h0V15H.83a.19.19,0,0,1-.18-.19h0V7a.18.18,0,0,1,.18-.18H14.17Zm-1.78,2V15H9.78V8.86ZM7.45,8.18H2.31A.37.37,0,0,0,2,8.55H2v4.7a.38.38,0,0,0,.37.39H7.46a.38.38,0,0,0,.37-.39h0V8.57a.39.39,0,0,0-.38-.39Zm-.28.68V13H2.61V8.86ZM2,2.05v3.4a.68.68,0,0,1-.56.68H.65A.65.65,0,0,1,0,5.56V2.73a.68.68,0,0,1,.56-.68H2Zm12.38,0a.66.66,0,0,1,.65.58V5.45a.67.67,0,0,1-.56.68h-.75a.67.67,0,0,1-.64-.58V2.05Zm-1.95,0v3.4a.67.67,0,0,1-.56.68h-.74a.67.67,0,0,1-.65-.58V2.05Zm-2.61,0v3.4a.67.67,0,0,1-.56.68H8.48a.67.67,0,0,1-.65-.58V2.05Zm-2.61,0v3.4a.67.67,0,0,1-.55.68H5.87a.67.67,0,0,1-.65-.58V2.05Zm-2.6,0v3.4A.68.68,0,0,1,4,6.13H3.26a.66.66,0,0,1-.64-.58V2.05Zm9.6-2a.18.18,0,0,1,.17.13v1a.17.17,0,0,1-.13.18H.83a.17.17,0,0,1-.17-.12v-1A.18.18,0,0,1,.78,0H14.17Z"/></g></g></g></svg>