<svg id="Layer_1" data-name="Layer 1" xmlns="http://www.w3.org/2000/svg" viewBox="0 0 15 15"><defs><style>.cls-1{fill:#ff52bf;}</style></defs><title>person</title><g id="Web"><g id="https:_oktium.com_business---description" data-name="https://oktium.com/business---description"><g id="MENU"><g id="icon-person-white"><path id="path-1" class="cls-1" d="M7.47,0A2.4,2.4,0,0,1,9.38.66a2.58,2.58,0,0,1,.82.3,1.62,1.62,0,0,1,.5.4l.1.14a2.73,2.73,0,0,1,.46,1.37,6.08,6.08,0,0,1-.34,2.39,1,1,0,0,1,.26.84,1.82,1.82,0,0,1-.36,1c-.1.12-.22.13-.34.19a3.92,3.92,0,0,1-.34,1,3.44,3.44,0,0,1-.29.47,2.09,2.09,0,0,1-.17.14c0,.44,0,.8,0,1.27a1.62,1.62,0,0,0,.86.7c.48.23,1.09.43,1.71.69a6.08,6.08,0,0,1,1.52.83s.29.26.37.35l.29.36A3,3,0,0,1,15,14.63h0L15,15H0l0-.37a3,3,0,0,1,.93-2,5.47,5.47,0,0,1,1.77-1c.63-.26,1.24-.46,1.72-.69a1.59,1.59,0,0,0,.86-.71c0-.46,0-.82,0-1.26,0-.05-.12-.08-.16-.14a3.48,3.48,0,0,1-.31-.47,3.92,3.92,0,0,1-.34-1c-.12-.06-.25-.07-.35-.19a1.82,1.82,0,0,1-.36-1,1,1,0,0,1,.27-.86,5.38,5.38,0,0,1,0-3.51C4.59.7,5.71,0,7.47,0Z"/></g></g></g></g></svg>