<?xml version="1.0" encoding="UTF-8"?>
<svg width="15px" height="15px" viewBox="0 0 15 15" version="1.1" xmlns="http://www.w3.org/2000/svg" xmlns:xlink="http://www.w3.org/1999/xlink">
    <title>Person Alternate Icon</title>
    <desc>Person Alternate Menu Icon</desc>
    <defs>
        <path d="M971.465046,9 C972.280882,9 972.988613,9.18136364 973.380676,9.66068182 C973.689137,9.71931818 973.963725,9.82090909 974.198674,9.95795455 C974.470379,10.125 974.535242,10.1761364 974.698842,10.3615909 C974.71686,10.3834091 974.789651,10.4822727 974.804065,10.5020455 C975.094508,10.9097727 975.222073,11.3911364 975.261711,11.8725 C975.338827,12.7990909 975.105319,13.7025 974.922981,14.2609091 C975.093067,14.4572727 975.22928,14.7115909 975.180272,15.0975 C975.124778,15.5297727 974.998655,15.8386364 974.817758,16.0547727 C974.721184,16.1706818 974.596502,16.1843182 974.479028,16.2415909 C974.414164,16.6090909 974.299572,16.9786364 974.140297,17.2875 C974.049488,17.4640909 973.950752,17.6277273 973.848412,17.7606818 C973.803008,17.8193182 973.7331,17.8540909 973.684812,17.9038636 C973.68193,18.3415909 973.679047,18.705 973.720127,19.1686364 C973.843367,19.4420455 974.130928,19.6595455 974.58425,19.8729545 C975.057032,20.0965909 975.668188,20.3025 976.290155,20.5554545 C976.816269,20.7702273 977.349589,21.0252273 977.808677,21.3920455 C977.808677,21.3920455 978.0984,21.6518182 978.177677,21.735 C978.264883,21.8277273 978.474607,22.0963636 978.474607,22.0963636 C978.75424,22.5122727 978.93802,23.0175 978.976937,23.6256818 L978.976937,23.6256818 L979,24 L964,24 L964.023783,23.6256818 C964.079277,22.7495455 964.438188,22.0861364 964.946284,21.6013636 C965.454379,21.1172727 966.097968,20.8090909 966.722097,20.5554545 C967.346226,20.3025 967.964589,20.0965909 968.439533,19.8729545 C968.899342,19.6575 969.182578,19.4345455 969.304377,19.1584091 C969.343295,18.7002273 969.341133,18.3381818 969.338971,17.9038636 C969.289963,17.8547727 969.221496,17.8193182 969.175371,17.7606818 C969.070869,17.6284091 968.965646,17.4640909 968.871955,17.2875 C968.708355,16.9793182 968.599529,16.6097727 968.532504,16.2415909 C968.412146,16.1843182 968.281699,16.1740909 968.182963,16.0547727 C968.002066,15.8386364 967.875943,15.5297727 967.820449,15.0975 C967.77,14.7 967.910537,14.4354545 968.089271,14.2390909 C967.757748,12.9538636 967.656128,11.7115909 968.112334,10.7277273 C968.591601,9.69613636 969.70725,9.03068182 971.465046,9 Z" id="path-1"></path>
    </defs>
    <g id="Web" stroke="none" stroke-width="1" fill="none" fill-rule="evenodd">
        <g id="https://oktium.com/business---description" transform="translate(-1005.000000, -39.000000)">
            <g id="MENU" transform="translate(41.000000, 30.000000)">
                <mask id="mask-2" fill="white">
                    <use xlink:href="#path-1"></use>
                </mask>
                <use id="icon-person-white" fill="#000000" xlink:href="#path-1"></use>
            </g>
        </g>
    </g>
</svg>
